# xmcd CD database file
#
# Track frame offsets:
#	150
#	19425
#	40285
#	60150
#	86180
#	112285
#	133087
#	150685
#	168995
#	191557
#
# Disc length: 3158 seconds
#
# Revision: 21
# Processed by: cddbd v1.5.2PL0 Copyright (c) Steve Scherf et al.
# Submitted via: CDex 1.70beta3
#
DISCID=890c540a
DTITLE=aiko - 桜の木の下
DYEAR=2000
DGENRE=Pop
TTITLE0=愛の病
TTITLE1=花火
TTITLE2=桜の時
TTITLE3=お薬
TTITLE4=二人の形
TTITLE5=桃色
TTITLE6=悪口
TTITLE7=傷跡
TTITLE8=Power Of Love
TTITLE9=カブトムシ 〜 恋愛ジャンキー
EXTD=YEAR: 2000
EXTT0=
EXTT1=
EXTT2=
EXTT3=
EXTT4=
EXTT5=
EXTT6=
EXTT7=
EXTT8=
EXTT9=
PLAYORDER=
